<svg xmlns="http://www.w3.org/2000/svg" xml:space="preserve" viewBox="0 0 65.3 41.5"><path fill="#030303" fill-rule="evenodd" d="M29.2 0C37-.4 41.8 3 43.7 10.5c.4 3.6-.4 6.8-2.4 9.8a242 242 0 0 1-9.4 9.6c-.3.2-.5.2-.8 0l-4.6-5.1c-1.3-3.2-.8-5.8 1.7-8.1 4.5-3 9-6.1 13.2-9.4-.2-.4-.6-.6-1-.5-.7 0-1.3.2-1.9.4-2 1-4.1 1.9-6.2 2.7A23 23 0 0 0 25 8.6c0 .4 0 .8.3 1l3.4 2.2-9 4C18.1 7.6 21.3 2.4 29.2 0z" clip-rule="evenodd" image-rendering="optimizeQuality" shape-rendering="geometricPrecision" text-rendering="geometricPrecision"/><text xml:space="preserve" x="317.6" y="122.3" fill="#13357b" stroke-width="0" font-family="Bauhaus 93" font-size="3.2" style="-inkscape-font-specification:&quot;Bauhaus 93, Normal&quot;;white-space:pre;inline-size:24.0411" transform="translate(-1112 -389.2) scale(3.500268)"><tspan x="317.6" y="122.3"><tspan fill="#000" font-family="Elephant" style="-inkscape-font-specification:&quot;Elephant, Normal&quot;">Fareperfect</tspan></tspan></text></svg>